<?xml version="1.0" encoding="UTF-8"?>
<svg version="1.1" xmlns="http://www.w3.org/2000/svg" width="1200" height="900">
<path d="M0 0 C396 0 792 0 1200 0 C1200 297 1200 594 1200 900 C804 900 408 900 0 900 C0 603 0 306 0 0 Z " fill="#FEFEFE" transform="translate(0,0)"/>
<path d="M0 0 C6.34198072 4.78770973 10.45963217 11.74398089 11.57590866 19.5821743 C11.84666682 24.08729523 11.77876352 28.58792836 11.71630859 33.09838867 C11.71461326 34.82412659 11.71557178 36.54986883 11.71896362 38.27560425 C11.72067559 42.93014868 11.68555625 47.58375347 11.64351988 52.23808074 C11.60585161 57.11336787 11.60247488 61.98867977 11.59536743 66.86408997 C11.5767657 76.08270626 11.52759226 85.30089241 11.46727049 94.51931983 C11.40005949 105.0199188 11.36717974 115.52053898 11.33709788 126.02129972 C11.27448883 147.60949139 11.16904515 169.19729665 11.03515625 190.78515625 C14.7803303 188.64640588 18.52533618 186.50736139 22.27020264 184.36807251 C23.53765594 183.6440788 24.80515103 182.92015825 26.07269287 182.19631958 C42.26866155 172.94733637 58.44539886 163.66497861 74.52416992 154.21337891 C111.41278652 132.5707288 150.54024508 117.47442285 194.03515625 128.78515625 C207.09019461 132.38187575 219.19483448 137.25696532 231.03515625 143.78515625 C231.93685547 144.27902832 232.83855469 144.77290039 233.76757812 145.28173828 C247.26178186 152.69645279 260.58898172 160.39305616 273.87109375 168.1796875 C280.59587594 172.12010885 287.34495936 176.01784786 294.09765625 179.91015625 C295.18618896 180.53784912 296.27472168 181.16554199 297.39624023 181.81225586 C301.49759256 184.17588338 305.5999084 186.53764232 309.71018982 188.88571167 C310.80742874 189.51252838 311.90466766 190.13934509 313.03515625 190.78515625 C313.02962549 189.89339282 313.02409473 189.00162939 313.01839638 188.08284283 C312.8857304 166.35650866 312.78652423 144.63024457 312.72428322 122.9035902 C312.69338169 112.39659745 312.65127203 101.88987553 312.58251953 91.38305664 C312.52260408 82.22233481 312.4839802 73.06180919 312.47062528 63.90089685 C312.46282205 59.05284184 312.44456034 54.20534802 312.40077591 49.35747337 C312.35984269 44.78797246 312.34752872 40.21926021 312.35651016 35.64959335 C312.35486873 33.97872306 312.34305721 32.30782452 312.3199234 30.63711357 C312.17797548 19.85039579 313.20857118 11.22083881 320.7771244 2.86108685 C327.68578895 -3.79639312 335.24585906 -5.6513155 344.62890625 -5.74609375 C352.89814457 -4.45639603 360.24109425 0.43414308 367.41015625 4.53515625 C368.8957605 5.37953247 368.8957605 5.37953247 370.41137695 6.2409668 C379.21121909 11.26543479 387.92103649 16.43851616 396.62573242 21.62548828 C404.77513755 26.47564324 412.98026941 31.21995573 421.22265625 35.91015625 C453.50707645 54.29167535 453.50707645 54.29167535 468.09765625 63.28515625 C468.7102832 63.65817871 469.32291016 64.03120117 469.95410156 64.41552734 C480.40506651 70.94811312 487.33401275 78.90253763 491.03515625 90.78515625 C491.92436416 95.18625868 492.16670692 99.36677228 492.18232727 103.85287476 C492.1878423 104.88493685 492.1878423 104.88493685 492.19346875 105.93784869 C492.20443478 108.23119723 492.20833738 110.52450035 492.2121582 112.81787109 C492.21842847 114.4676528 492.22507576 116.11743312 492.23207092 117.76721191 C492.25305598 123.1768293 492.26347173 128.58644677 492.2734375 133.99609375 C492.27748787 135.86484415 492.28160487 137.73359441 492.28578758 139.60234451 C492.3048312 148.38880464 492.31906102 157.17525644 492.32739955 165.96173322 C492.33715328 176.07012275 492.36342744 186.17829221 492.40390044 196.28660429 C492.43417866 204.12045795 492.44887967 211.95424898 492.45218056 219.78815997 C492.45451872 224.45672619 492.46331612 229.12505712 492.48864174 233.79356003 C492.51213176 238.19480275 492.51607281 242.59565879 492.50588036 246.99694824 C492.50538984 248.59957805 492.51156465 250.20222828 492.5254364 251.80479813 C492.69365396 272.41619935 487.53327697 290.49991436 473.26953125 305.87109375 C465.57162314 313.19812732 456.16407334 318.7558474 447.22265625 324.41015625 C446.13879639 325.09964355 445.05493652 325.78913086 443.93823242 326.49951172 C441.71205548 327.91524014 439.48492753 329.32947429 437.25683594 330.7421875 C434.26660737 332.63838579 431.27910516 334.53877211 428.29296875 336.44140625 C423.77588822 339.31931123 419.25675266 342.19396549 414.73681641 345.06738281 C411.08747293 347.38771362 407.43905928 349.7095039 403.79077148 352.03149414 C401.95841272 353.19759966 400.12589398 354.36345385 398.29321289 355.52905273 C393.65712468 358.47793997 389.023576 361.43069158 384.39453125 364.390625 C379.81520607 367.31759588 375.22838388 370.23243769 370.63525391 373.13769531 C368.93214305 374.21681194 367.23120683 375.29937014 365.53271484 376.38574219 C345.41120184 389.2378873 325.15554261 396.41505398 300.90625 392.16796875 C284.18925702 388.16156322 271.54421642 379.28134121 258.38671875 368.64941406 C254.414083 365.50001139 250.3185227 362.52140187 246.22265625 359.53515625 C239.83641658 354.86210988 233.52245786 350.11871618 227.265625 345.2734375 C222.24690881 341.39498363 217.16864643 337.5959792 212.078125 333.8125 C209.42661785 331.83959569 206.80874638 329.83206463 204.2109375 327.7890625 C187.74015064 315.00343219 171.72915287 311.43987737 151.03515625 312.78515625 C134.40788978 314.93227608 121.90954298 326.00379613 109.27392578 336.02587891 C105.96465739 338.62637924 102.59903011 341.14775584 99.22265625 343.66015625 C93.92294312 347.61080306 88.65192617 351.59626873 83.40136719 355.61206055 C29.4362636 396.87283834 29.4362636 396.87283834 -5.12451172 392.51269531 C-24.57038745 389.25092571 -40.68481045 377.36178524 -56.83691406 366.81933594 C-61.52328085 363.77166125 -66.24342287 360.7781153 -70.96484375 357.78515625 C-79.86455215 352.12934229 -88.74799104 346.44835654 -97.62646484 340.75927734 C-103.66976713 336.88844694 -109.72187438 333.0320564 -115.78393555 329.19067383 C-119.37667454 326.91086477 -122.96223587 324.61994115 -126.54638672 322.32666016 C-128.78486573 320.89987271 -131.03227036 319.48827045 -133.28125 318.078125 C-150.21503501 307.32803723 -162.08862748 293.64816151 -166.96484375 273.78515625 C-167.75952656 268.99522122 -168.09197401 264.40295939 -168.09855652 259.55007935 C-168.10082208 258.85624456 -168.10308763 258.16240978 -168.10542184 257.4475497 C-168.11171199 255.14095984 -168.11093571 252.83442948 -168.11010742 250.52783203 C-168.113102 248.86654587 -168.11650522 247.20526039 -168.12028503 245.54397583 C-168.12909815 241.04392583 -168.131462 236.54389486 -168.13210082 232.04383707 C-168.13281277 229.22939641 -168.13494983 226.41496055 -168.13759804 223.60052109 C-168.14684208 213.77355391 -168.15093404 203.94660028 -168.15014648 194.11962891 C-168.14954572 184.97253375 -168.16009964 175.82549756 -168.17589015 166.67841733 C-168.1889819 158.81322965 -168.1943297 150.94806122 -168.19369107 143.08286273 C-168.1934366 138.39057964 -168.19626008 133.69834901 -168.20686913 129.00607681 C-168.21657781 124.5917907 -168.21661033 120.17760691 -168.20935249 115.76331711 C-168.20831014 114.14808248 -168.21064869 112.53284138 -168.21671295 110.9176178 C-168.26860658 96.13209956 -166.74334651 82.99030475 -156.17578125 71.75390625 C-145.94145819 62.64065745 -132.56838816 56.44485789 -120.75390625 49.6796875 C-114.47105567 46.08171672 -108.21397568 42.44129815 -101.96484375 38.78515625 C-93.64757947 33.92369538 -85.31276704 29.09377348 -76.96484375 24.28515625 C-68.28613739 19.28487218 -59.61774443 14.26748099 -50.96484375 9.22265625 C-50.00449219 8.66320312 -49.04414063 8.10375 -48.0546875 7.52734375 C-42.69156609 4.3969705 -37.35499739 1.22766341 -32.04638672 -1.99438477 C-21.72629834 -8.04530217 -9.80385031 -6.06162514 0 0 Z " fill="#09755F" transform="translate(437.96484375,256.21484375)"/>
<path d="M0 0 C6.06716095 4.58024186 10.31680792 11.55001386 11.58482289 19.02580762 C11.79231971 22.69422109 11.81424536 26.31903915 11.76773071 29.99307251 C11.77162102 31.40271821 11.77815793 32.81235862 11.7870878 34.22198141 C11.803964 38.0680421 11.78387057 41.9131325 11.75745678 45.75910616 C11.73554864 49.91729008 11.74855127 54.07538496 11.75737 58.2335968 C11.76807585 65.43081086 11.75740585 72.62773413 11.73247147 79.82490921 C11.69677063 90.24044632 11.69809805 100.65573116 11.7090693 111.07131188 C11.72625695 127.98475385 11.7197004 144.89809294 11.6953125 161.81152344 C11.69386086 162.82274176 11.69240923 163.83396009 11.6909136 164.8758214 C11.6850002 168.97322443 11.67904713 173.07062741 11.67303751 177.1680303 C11.65672919 188.45186043 11.64516843 199.73569342 11.63574219 211.01953125 C11.63489123 212.03011816 11.63404027 213.04070506 11.63316353 214.08191581 C11.61954358 230.93645243 11.62182008 247.79095875 11.63379133 264.64549577 C11.64026918 275.03452975 11.63142687 285.42334428 11.60270678 295.81234179 C11.58380412 302.92897576 11.57869754 310.04553129 11.58439972 317.16218783 C11.58713999 321.26667947 11.58322697 325.37089018 11.56170845 329.47533226 C11.54207645 333.23556787 11.54093885 336.99534727 11.55421655 340.75560646 C11.55646193 342.75365954 11.53894485 344.75170499 11.52063048 346.74967539 C11.58914792 357.35331594 14.0747939 364.37181024 21.30859375 372.12890625 C26.77648849 377.37412654 33.15113748 379.06936429 40.59765625 378.97265625 C41.69207031 378.96621094 42.78648437 378.95976563 43.9140625 378.953125 C46.7286889 378.80164949 49.29498855 378.42299789 52.03515625 377.78515625 C42.31238829 388.50335045 25.50259637 392.34546026 11.6015625 393.046875 C-15.57617965 393.93195249 -34.71915903 381.25555531 -56.83691406 366.81933594 C-61.52328085 363.77166125 -66.24342287 360.7781153 -70.96484375 357.78515625 C-79.86455215 352.12934229 -88.74799104 346.44835654 -97.62646484 340.75927734 C-103.66976713 336.88844694 -109.72187438 333.0320564 -115.78393555 329.19067383 C-119.37667454 326.91086477 -122.96223587 324.61994115 -126.54638672 322.32666016 C-128.78486573 320.89987271 -131.03227036 319.48827045 -133.28125 318.078125 C-150.21503501 307.32803723 -162.08862748 293.64816151 -166.96484375 273.78515625 C-167.75952656 268.99522122 -168.09197401 264.40295939 -168.09855652 259.55007935 C-168.10082208 258.85624456 -168.10308763 258.16240978 -168.10542184 257.4475497 C-168.11171199 255.14095984 -168.11093571 252.83442948 -168.11010742 250.52783203 C-168.113102 248.86654587 -168.11650522 247.20526039 -168.12028503 245.54397583 C-168.12909815 241.04392583 -168.131462 236.54389486 -168.13210082 232.04383707 C-168.13281277 229.22939641 -168.13494983 226.41496055 -168.13759804 223.60052109 C-168.14684208 213.77355391 -168.15093404 203.94660028 -168.15014648 194.11962891 C-168.14954572 184.97253375 -168.16009964 175.82549756 -168.17589015 166.67841733 C-168.1889819 158.81322965 -168.1943297 150.94806122 -168.19369107 143.08286273 C-168.1934366 138.39057964 -168.19626008 133.69834901 -168.20686913 129.00607681 C-168.21657781 124.5917907 -168.21661033 120.17760691 -168.20935249 115.76331711 C-168.20831014 114.14808248 -168.21064869 112.53284138 -168.21671295 110.9176178 C-168.26860658 96.13209956 -166.74334651 82.99030475 -156.17578125 71.75390625 C-145.94145819 62.64065745 -132.56838816 56.44485789 -120.75390625 49.6796875 C-114.47105567 46.08171672 -108.21397568 42.44129815 -101.96484375 38.78515625 C-93.64757947 33.92369538 -85.31276704 29.09377348 -76.96484375 24.28515625 C-68.28613739 19.28487218 -59.61774443 14.26748099 -50.96484375 9.22265625 C-50.00449219 8.66320312 -49.04414063 8.10375 -48.0546875 7.52734375 C-42.69156609 4.3969705 -37.35499739 1.22766341 -32.04638672 -1.99438477 C-21.72629834 -8.04530217 -9.80385031 -6.06162514 0 0 Z " fill="#D9DF1B" transform="translate(437.96484375,256.21484375)"/>
<path d="M0 0 C0.99040283 0.56291748 1.98080566 1.12583496 3.0012207 1.70581055 C11.80106284 6.73027854 20.51088024 11.90335991 29.21557617 17.09033203 C37.3649813 21.94048699 45.57011316 26.68479948 53.8125 31.375 C86.0969202 49.7565191 86.0969202 49.7565191 100.6875 58.75 C101.30012695 59.12302246 101.91275391 59.49604492 102.54394531 59.88037109 C112.99491026 66.41295687 119.9238565 74.36738138 123.625 86.25 C124.51420791 90.65110243 124.75655067 94.83161603 124.77217102 99.31771851 C124.77584771 100.0057599 124.7795244 100.6938013 124.7833125 101.40269244 C124.79427853 103.69604098 124.79818113 105.9893441 124.80200195 108.28271484 C124.80827222 109.93249655 124.81491951 111.58227687 124.82191467 113.23205566 C124.84289973 118.64167305 124.85331548 124.05129052 124.86328125 129.4609375 C124.86733162 131.3296879 124.87144862 133.19843816 124.87563133 135.06718826 C124.89467495 143.85364839 124.90890477 152.64010019 124.9172433 161.42657697 C124.92699703 171.5349665 124.95327119 181.64313596 124.99374419 191.75144804 C125.02402241 199.5853017 125.03872342 207.41909273 125.04202431 215.25300372 C125.04436247 219.92156994 125.05315987 224.58990087 125.07848549 229.25840378 C125.10197551 233.6596465 125.10591656 238.06050254 125.09572411 242.46179199 C125.09523359 244.0644218 125.1014084 245.66707203 125.11528015 247.26964188 C125.28349771 267.8810431 120.12312072 285.96475811 105.859375 301.3359375 C98.16146689 308.66297107 88.75391709 314.22069115 79.8125 319.875 C78.72864014 320.5644873 77.64478027 321.25397461 76.52807617 321.96435547 C74.30189923 323.38008389 72.07477128 324.79431804 69.84667969 326.20703125 C66.85645112 328.10322954 63.86894891 330.00361586 60.8828125 331.90625 C56.36573197 334.78415498 51.84659641 337.65880924 47.32666016 340.53222656 C43.67731668 342.85255737 40.02890303 345.17434765 36.38061523 347.49633789 C34.54825647 348.66244341 32.71573773 349.8282976 30.88305664 350.99389648 C26.24696843 353.94278372 21.61341975 356.89553533 16.984375 359.85546875 C12.40504982 362.78243963 7.81822763 365.69728144 3.22509766 368.60253906 C1.5219868 369.68165569 -0.17894942 370.76421389 -1.87744141 371.85058594 C-21.99895441 384.70273105 -42.25461364 391.87989773 -66.50390625 387.6328125 C-75.41895376 385.49622635 -90.04500181 381.24499728 -95.375 373.25 C-94.611875 373.415 -93.84875 373.58 -93.0625 373.75 C-82.7940867 375.14232723 -74.04208464 374.49754582 -65.1875 368.8125 C-59.45270154 364.02875596 -56.02789674 357.2477415 -54.82988453 349.91221225 C-54.62474495 346.22752125 -54.60524435 342.587395 -54.65588379 338.89732361 C-54.65342769 337.48411803 -54.64831443 336.07091505 -54.64080286 334.6577273 C-54.62779772 330.80635826 -54.65173243 326.95599808 -54.68201756 323.10475957 C-54.70808144 318.93907789 -54.69910113 314.77345162 -54.69425964 310.60771179 C-54.69036163 303.39849986 -54.70762373 296.18959327 -54.73881531 288.98045158 C-54.78340442 278.54545196 -54.78899338 268.11070115 -54.78410822 257.67562038 C-54.77666798 240.72730438 -54.79151379 223.77909373 -54.82470703 206.83081055 C-54.82668329 205.81769173 -54.82865955 204.80457291 -54.83069569 203.76075352 C-54.84486941 196.56966776 -54.8598425 189.37858375 -54.875 182.1875 C-54.89231721 173.97127384 -54.90927064 165.75504715 -54.92529297 157.53881836 C-54.92727473 156.52663799 -54.9292565 155.51445762 -54.93129832 154.47160511 C-54.96363372 137.58312413 -54.97244958 120.69470898 -54.96454191 103.80620009 C-54.96080875 93.39935268 -54.97827151 82.99295142 -55.02328241 72.58619846 C-55.05278288 65.45552059 -55.06105221 58.32502157 -55.05275929 51.19428819 C-55.04874303 47.08332943 -55.05455821 42.97299929 -55.08685875 38.8621521 C-55.11631495 35.09365202 -55.11779676 31.32618032 -55.09773749 27.5576281 C-55.09426298 25.56007053 -55.1203255 23.56252767 -55.14768839 21.56515449 C-55.0580079 12.34576703 -52.88742785 5.26581571 -46.63318014 -1.68613011 C-31.62572059 -16.03134741 -15.51353814 -8.87441399 0 0 Z " fill="#DDDD1A" transform="translate(805.375,260.75)"/>
<path d="M0 0 C1.35254883 0.74080811 1.35254883 0.74080811 2.73242188 1.49658203 C16.22662561 8.91129654 29.55382547 16.60789991 42.8359375 24.39453125 C49.56071969 28.3349526 56.30980311 32.23269161 63.0625 36.125 C64.15103271 36.75269287 65.23956543 37.38038574 66.36108398 38.02709961 C71.56844239 41.02812334 76.78162684 44.01807248 82 47 C82 80.66 82 114.32 82 149 C80.35 148.67 78.7 148.34 77 148 C76.67 147.01 76.34 146.02 76 145 C75.2766748 144.89381348 74.55334961 144.78762695 73.80810547 144.67822266 C70.74216984 143.93772803 68.7290106 142.83294829 66.0703125 141.1484375 C65.12043457 140.55119873 64.17055664 139.95395996 63.19189453 139.33862305 C62.17981934 138.69062744 61.16774414 138.04263184 60.125 137.375 C59.07812012 136.71218018 58.03124023 136.04936035 56.95263672 135.36645508 C53.62799533 133.25518102 50.3125834 131.13013767 47 129 C45.89785156 128.29182129 44.79570313 127.58364258 43.66015625 126.85400391 C40.47783167 124.80450742 37.29994317 122.74841031 34.125 120.6875 C33.13902832 120.04796387 32.15305664 119.40842773 31.13720703 118.74951172 C30.22825684 118.15541504 29.31930664 117.56131836 28.3828125 116.94921875 C27.58246582 116.42674561 26.78211914 115.90427246 25.95751953 115.3659668 C23.69311407 113.78585348 22.24191905 112.48383809 21 110 C18.47266765 109.34444881 18.47266765 109.34444881 16 109 C15.67 108.01 15.34 107.02 15 106 C14.113125 105.938125 13.22625 105.87625 12.3125 105.8125 C8.2169209 104.80792399 6.86551676 103.01246634 4 100 C1.33466965 98.680982 1.33466965 98.680982 -1 98 C-1 97.34 -1 96.68 -1 96 C-1.99 96 -2.98 96 -4 96 C-4 95.34 -4 94.68 -4 94 C-4.68320312 93.7525 -5.36640625 93.505 -6.0703125 93.25 C-10.14751146 91.51039511 -13.8701835 89.21610847 -17.65234375 86.921875 C-21.69513236 84.54062808 -25.43907706 83.1198174 -30 82 C-30 81.34 -30 80.68 -30 80 C-33.22596349 79.14742393 -36.46583688 78.5239577 -39.75 77.9375 C-40.73484375 77.76089844 -41.7196875 77.58429688 -42.734375 77.40234375 C-43.48203125 77.26957031 -44.2296875 77.13679688 -45 77 C-45 76.34 -45 75.68 -45 75 C-50.74338017 74.92507131 -56.48646719 74.87103489 -62.23022461 74.83520508 C-64.17851731 74.82024667 -66.1267771 74.79987253 -68.07495117 74.77368164 C-78.30987157 74.63966856 -87.82976592 74.55498017 -97.7277832 77.44799805 C-100 78 -100 78 -102 77 C-102.495 78.485 -102.495 78.485 -103 80 C-104.6796875 80.73828125 -104.6796875 80.73828125 -106.875 81.3125 C-111.88299822 82.8052687 -116.12111904 85.16065517 -120.6171875 87.79296875 C-123 89 -123 89 -126 89 C-126 89.66 -126 90.32 -126 91 C-127.134375 91.45375 -128.26875 91.9075 -129.4375 92.375 C-133.04721692 93.57095806 -133.04721692 93.57095806 -134 96 C-134.99 96 -135.98 96 -137 96 C-137 96.66 -137 97.32 -137 98 C-141.14453354 101.96570849 -145.13998008 104.706999 -151 105 C-151 105.66 -151 106.32 -151 107 C-152.64453125 108.2890625 -152.64453125 108.2890625 -154.8125 109.625 C-155.52019531 110.07101562 -156.22789062 110.51703125 -156.95703125 110.9765625 C-159 112 -159 112 -162 112 C-162.33 112.66 -162.66 113.32 -163 114 C-165.36841639 115.97368032 -167.04152015 117.01384005 -170 118 C-170.66 118.99 -171.32 119.98 -172 121 C-173.32 121 -174.64 121 -176 121 C-176 121.66 -176 122.32 -176 123 C-176.99 123 -177.98 123 -179 123 C-179.33 123.66 -179.66 124.32 -180 125 C-182.0625 125.625 -182.0625 125.625 -184 126 C-184 126.66 -184 127.32 -184 128 C-184.99 128 -185.98 128 -187 128 C-187.33 128.66 -187.66 129.32 -188 130 C-193.35714286 135 -193.35714286 135 -198 135 C-198 135.66 -198 136.32 -198 137 C-198.99 137 -199.98 137 -201 137 C-201.33 137.66 -201.66 138.32 -202 139 C-206.5 142 -206.5 142 -209 142 C-209.99 143.98 -209.99 143.98 -211 146 C-212.32 146 -213.64 146 -215 146 C-215.33 146.99 -215.66 147.98 -216 149 C-217.98 149.99 -217.98 149.99 -220 151 C-220 116.68 -220 82.36 -220 47 C-210.76 41.72 -201.52 36.44 -192 31 C-180.14782374 24.179408 -168.29946241 17.35785407 -156.51098633 10.42822266 C-106.15597674 -19.11519627 -53.62129529 -29.56423487 0 0 Z " fill="#37DA69" transform="translate(669,400)"/>
<path d="M0 0 C0.00146656 0.84206969 0.00293312 1.68413939 0.00444412 2.55172634 C0.04152646 23.05914258 0.10056019 43.56639373 0.18390274 64.07367611 C0.22367985 73.99093325 0.25607911 83.90811119 0.27099609 93.82543945 C0.28401947 102.47130581 0.31100171 111.1169978 0.35461307 119.76276594 C0.37721241 124.33892943 0.3929116 128.91487798 0.39188385 133.49110222 C0.39113634 137.80286496 0.40912364 142.11415286 0.44116783 146.42579269 C0.4496512 148.003909 0.4514274 149.58207866 0.44580269 151.16020775 C0.40873442 163.16406527 1.94369377 171.41142906 10.2734375 180.34375 C15.74133224 185.58897029 22.11598123 187.28420804 29.5625 187.1875 C30.65691406 187.18105469 31.75132812 187.17460938 32.87890625 187.16796875 C35.69353265 187.01649324 38.2598323 186.63784164 41 186 C31.27723204 196.7181942 14.46744012 200.56030401 0.56640625 201.26171875 C-26.6113359 202.14679624 -45.75431528 189.47039906 -67.87207031 175.03417969 C-72.5584371 171.986505 -77.27857912 168.99295905 -82 166 C-90.8997084 160.34418604 -99.78314729 154.66320029 -108.66162109 148.97412109 C-114.70492338 145.10329069 -120.75703063 141.24690015 -126.8190918 137.40551758 C-130.41183079 135.12570852 -133.99739212 132.8347849 -137.58154297 130.54150391 C-139.82002198 129.11471646 -142.06742661 127.7031142 -144.31640625 126.29296875 C-161.25019126 115.54288098 -173.12378373 101.86300526 -178 82 C-179.0456187 76.31788787 -179.11936457 70.8145695 -179.0625 65.0625 C-179.05573242 63.75055664 -179.05573242 63.75055664 -179.04882812 62.41210938 C-179.03714834 60.27470953 -179.01921689 58.13734537 -179 56 C-176.49230942 58.37430278 -175.74702466 59.63838901 -175 63 C-173.46482303 66.73782219 -171.86459849 70.41423367 -170 74 C-169.01 74 -168.02 74 -167 74 C-165.99172457 74.99165551 -164.99260203 75.99265636 -164 77 C-153.92888979 81.56713137 -145.80470164 80.94420047 -135.5 78 C-132.85467041 77.26297735 -132.85467041 77.26297735 -132 75 C-130.02111039 74.27306096 -128.02045442 73.60183749 -126 73 C-126 72.34 -126 71.68 -126 71 C-125.195625 70.87625 -124.39125 70.7525 -123.5625 70.625 C-122.2940625 70.315625 -122.2940625 70.315625 -121 70 C-120.67 69.34 -120.34 68.68 -120 68 C-118 67.33333333 -116 66.66666667 -114 66 C-113.67 65.34 -113.34 64.68 -113 64 C-110.70796792 62.55697601 -108.42168537 61.19838843 -106.0625 59.875 C-105.41603516 59.50246094 -104.76957031 59.12992187 -104.10351562 58.74609375 C-99.26013049 56 -99.26013049 56 -97 56 C-96.505 55.01 -96.505 55.01 -96 54 C-93.06295544 51.9904432 -91.60777515 51 -88 51 C-88 50.34 -88 49.68 -88 49 C-85.69 48.34 -83.38 47.68 -81 47 C-81 46.34 -81 45.68 -81 45 C-79.35 44.67 -77.7 44.34 -76 44 C-76 43.34 -76 42.68 -76 42 C-73.35261084 40.5393715 -72.10551666 40 -69 40 C-69 39.34 -69 38.68 -69 38 C-67.35 37.67 -65.7 37.34 -64 37 C-64 36.34 -64 35.68 -64 35 C-63.15695312 34.58363281 -62.31390625 34.16726563 -61.4453125 33.73828125 C-57.89022096 31.94461262 -54.38040063 30.07548045 -50.875 28.1875 C-45.16409115 25.12257482 -39.40964945 22.17082305 -33.5859375 19.32421875 C-30.97999281 17.98975463 -28.49714758 16.52694434 -26 15 C-24.83576972 14.32908763 -23.66937251 13.66190897 -22.5 13 C-20.52499891 11.87687706 -18.56904933 10.73916144 -16.625 9.5625 C-13.52295979 7.7160475 -10.35883783 5.99819307 -7.18359375 4.28125 C-5.12412619 3.07283254 -2.36373619 0 0 0 Z " fill="#88BE07" transform="translate(449,448)"/>
<path d="M0 0 C4.18833314 1.63895072 7.93776046 3.613562 11.81640625 5.87890625 C13.91809106 7.07414821 13.91809106 7.07414821 16.08984375 7.46484375 C18.46124289 8.12922347 19.29236455 9.25777953 21 11 C23.26027345 12.2048149 23.26027345 12.2048149 25.6875 13.1875 C26.49574219 13.53167969 27.30398438 13.87585938 28.13671875 14.23046875 C28.75160156 14.48441406 29.36648438 14.73835938 30 15 C30 15.66 30 16.32 30 17 C31.175625 17.2165625 31.175625 17.2165625 32.375 17.4375 C35 18 35 18 37 19 C37 19.66 37 20.32 37 21 C37.57234375 21.12246094 38.1446875 21.24492187 38.734375 21.37109375 C41.09953191 22.02762868 43.07206797 22.93723512 45.25 24.0625 C45.95640625 24.42472656 46.6628125 24.78695313 47.390625 25.16015625 C48.18726563 25.57587891 48.18726563 25.57587891 49 26 C49 26.66 49 27.32 49 28 C50.65 28.33 52.3 28.66 54 29 C54 29.66 54 30.32 54 31 C54.86625 31.268125 55.7325 31.53625 56.625 31.8125 C59.91791964 32.97111987 62.91127875 34.38209839 66 36 C66 36.66 66 37.32 66 38 C67.65 38.33 69.3 38.66 71 39 C71 39.66 71 40.32 71 41 C73.31 41.66 75.62 42.32 78 43 C78 43.66 78 44.32 78 45 C78.825 45.2475 79.65 45.495 80.5 45.75 C84.52373471 47.18704811 88.21979024 49.02354515 92 51 C92 51.66 92 52.32 92 53 C93.11375 53.185625 93.11375 53.185625 94.25 53.375 C97.5045559 54.11467179 99.99538258 54.91996085 102.30078125 57.3984375 C104.37863169 59.35687125 106.52205315 60.44870636 109.0625 61.75 C113.84472289 64.28917764 118.17645141 67.15729669 122.5625 70.3203125 C126.21741805 72.8389259 130.07217597 74.94121301 134 77 C134 77.66 134 78.32 134 79 C134.928125 79.144375 135.85625 79.28875 136.8125 79.4375 C140 80 140 80 143 81 C152.03859598 81.82275906 159.5418638 81.51369355 167 76 C171.82489054 71.63201197 174.83610844 67.10981147 177 61 C177.33 61 177.66 61 178 61 C178.89744787 80.64413681 175.97561332 95.7804944 162.75 111.125 C154.52257719 119.86918656 145.11169645 125.89569063 134.8984375 132.0234375 C129.94220405 135.00986045 125.09024086 138.14242921 120.25 141.3125 C110.47974452 147.70308345 100.63989234 153.97918915 90.78222656 160.23388672 C87.10059699 162.57092676 83.42163698 164.91214574 79.74316406 167.25415039 C77.92015895 168.4143773 76.09659439 169.57372564 74.27246094 170.73217773 C69.55271705 173.73070741 64.84328607 176.74386541 60.1484375 179.78125 C41.1969611 192.01113799 41.1969611 192.01113799 32 196 C30.95779297 196.46599609 30.95779297 196.46599609 29.89453125 196.94140625 C13.80224466 203.59031508 -6.89468467 203.21155858 -23 197 C-37.94732388 190.57901417 -37.94732388 190.57901417 -41 186 C-40.236875 186.165 -39.47375 186.33 -38.6875 186.5 C-28.4190867 187.89232723 -19.66708464 187.24754582 -10.8125 181.5625 C-4.8947627 176.59841535 -1.57103756 169.85646277 -0.4454689 162.25501251 C-0.15357351 157.97091623 -0.19077644 153.69092109 -0.22705078 149.39941406 C-0.21886355 147.76218212 -0.20805173 146.12496155 -0.19483948 144.48776245 C-0.16659377 140.0792839 -0.17469204 135.6715583 -0.18970728 131.2630434 C-0.19913391 126.64254937 -0.17459385 122.02223336 -0.15377808 117.40179443 C-0.11953228 108.66854704 -0.11548628 99.93556185 -0.12250316 91.20226073 C-0.12901079 81.25287866 -0.10152762 71.30367923 -0.07130075 61.35435152 C-0.00992321 40.90288048 0.00913102 20.45155321 0 0 Z " fill="#8FC00D" transform="translate(751,448)"/>
<path d="M0 0 C0.33 0 0.66 0 1 0 C1 34.32 1 68.64 1 104 C2.65 104.66 4.3 105.32 6 106 C7.72676029 106.98934442 9.43536855 108.01100153 11.125 109.0625 C13.80251948 110.72679402 15.99972402 111.99990801 19 113 C20.00946158 113.99044804 21.0083479 114.99172121 22 116 C23.43940475 116.97860974 24.90767236 117.91542925 26.39453125 118.8203125 C27.26094238 119.35140625 28.12735352 119.8825 29.02001953 120.4296875 C29.94153809 120.98914063 30.86305664 121.54859375 31.8125 122.125 C37.56266291 125.64002369 43.29837546 129.15805745 48.92089844 132.87451172 C56.43659708 137.83831842 64.01820265 142.46300794 73 144 C73 144.66 73 145.32 73 146 C73.81597656 145.83242188 74.63195312 145.66484375 75.47265625 145.4921875 C78.75763079 145.03381896 81.85578545 144.97766258 85.16601562 145.06518555 C98.03301064 145.40400904 109.77065829 143.05726396 122 139 C118.42117271 143.03328155 114.17109839 145.57732947 109.625 148.375 C107.90463838 149.44742026 106.18459894 150.52035752 104.46484375 151.59375 C103.56749512 152.15191406 102.67014648 152.71007812 101.74560547 153.28515625 C97.20774837 156.11940027 92.69841942 158.99815046 88.1875 161.875 C86.33205187 163.05602198 84.47658296 164.23701131 82.62109375 165.41796875 C78.86096678 167.81279983 75.10350435 170.21174588 71.34765625 172.61328125 C66.77218354 175.53756017 62.18925909 178.44979163 57.60009766 181.35253906 C55.8969868 182.43165569 54.19605058 183.51421389 52.49755859 184.60058594 C32.37604559 197.45273105 12.12038636 204.62989773 -12.12890625 200.3828125 C-21.04395376 198.24622635 -35.67000181 193.99499728 -41 186 C-40.236875 186.165 -39.47375 186.33 -38.6875 186.5 C-28.4190867 187.89232723 -19.66708464 187.24754582 -10.8125 181.5625 C-4.8947627 176.59841535 -1.57103756 169.85646277 -0.4454689 162.25501251 C-0.15357351 157.97091623 -0.19077644 153.69092109 -0.22705078 149.39941406 C-0.21886355 147.76218212 -0.20805173 146.12496155 -0.19483948 144.48776245 C-0.16659377 140.0792839 -0.17469204 135.6715583 -0.18970728 131.2630434 C-0.19913391 126.64254937 -0.17459385 122.02223336 -0.15377808 117.40179443 C-0.11953228 108.66854704 -0.11548628 99.93556185 -0.12250316 91.20226073 C-0.12901079 81.25287866 -0.10152762 71.30367923 -0.07130075 61.35435152 C-0.00992321 40.90288048 0.00913102 20.45155321 0 0 Z " fill="#6DB105" transform="translate(751,448)"/>
<path d="M0 0 C0.00546844 1.13513283 0.00546844 1.13513283 0.01104736 2.29319763 C0.04906054 9.45743918 0.10606238 16.62116834 0.18390274 23.785079 C0.22325618 27.46733202 0.25550341 31.14935026 0.27099609 34.83178711 C0.28624368 38.3917766 0.32082954 41.95112009 0.36830902 45.51082039 C0.3901637 47.51626348 0.39246675 49.52188927 0.39434814 51.52745056 C0.56581041 62.31508028 2.90348374 69.44065065 10.2734375 77.34375 C15.74133224 82.58897029 22.11598123 84.28420804 29.5625 84.1875 C30.65691406 84.18105469 31.75132812 84.17460938 32.87890625 84.16796875 C35.69353265 84.01649324 38.2598323 83.63784164 41 83 C31.27723204 93.7181942 14.46744012 97.56030401 0.56640625 98.26171875 C-26.6113359 99.14679624 -45.75431528 86.47039906 -67.87207031 72.03417969 C-72.55843818 68.9865043 -77.27862531 65.99303355 -82 63 C-90.11083592 57.84376727 -98.21444385 52.67627368 -106.3125 47.5 C-107.34439453 46.84128906 -108.37628906 46.18257812 -109.43945312 45.50390625 C-115.33618274 41.73215898 -121.19344999 37.90925229 -127 34 C-126.01 33.505 -126.01 33.505 -125 33 C-124.32839844 33.41894531 -123.65679687 33.83789062 -122.96484375 34.26953125 C-107.85973405 43.08582057 -85.46967586 43.38820222 -68.875 39.375 C-57.41451987 36.09657414 -47.1502469 29.45076462 -37.125 23.1875 C-35.97618387 22.47446426 -34.82717488 21.76173917 -33.67797852 21.04931641 C-23.19479804 14.53987648 -12.76973212 7.95015 -2.57421875 0.99609375 C-1 0 -1 0 0 0 Z " fill="#68B002" transform="translate(449,551)"/>
<path d="M0 0 C0.76441406 0.0721875 1.52882813 0.144375 2.31640625 0.21875 C9.89061646 0.87499926 17.29356755 1.03706945 24.8828125 0.83984375 C28 1 28 1 31 3 C33.51584891 3.24150773 33.51584891 3.24150773 36.1875 3.125 C37.53908203 3.09792969 37.53908203 3.09792969 38.91796875 3.0703125 C39.94857422 3.03550781 39.94857422 3.03550781 41 3 C41 3.66 41 4.32 41 5 C41.99 5 42.98 5 44 5 C44.33 4.34 44.66 3.68 45 3 C45 3.66 45 4.32 45 5 C45.73605469 5.04898437 46.47210937 5.09796875 47.23046875 5.1484375 C48.20628906 5.22320312 49.18210937 5.29796875 50.1875 5.375 C51.15042969 5.44460938 52.11335937 5.51421875 53.10546875 5.5859375 C56.02457118 6.00351491 58.27963847 6.90473169 61 8 C62.32 8 63.64 8 65 8 C67.140625 8.98828125 67.140625 8.98828125 69.25 10.3125 C69.95640625 10.74175781 70.6628125 11.17101562 71.390625 11.61328125 C72.18726563 12.29970703 72.18726563 12.29970703 73 13 C73 13.99 73 14.98 73 16 C75.31 16.33 77.62 16.66 80 17 C80 17.99 80 18.98 80 20 C80.66 20 81.32 20 82 20 C82 20.66 82 21.32 82 22 C82.66 22.33 83.32 22.66 84 23 C81.50907189 24.24546405 80.58919267 23.7767578 78 23 C78 22.34 78 21.68 78 21 C77.4225 21.185625 76.845 21.37125 76.25 21.5625 C73.79307475 22.04023546 72.35602466 21.75729364 70 21 C72.05233685 23.2477975 73.00667261 24.0022242 76 25 C76 25.66 76 26.32 76 27 C74.35 27.33 72.7 27.66 71 28 C70.01 26.515 70.01 26.515 69 25 C67.34795544 24.29788106 65.68076231 23.63028587 64 23 C63.01 22.01 63.01 22.01 62 21 C59.56747339 20.53837573 59.56747339 20.53837573 56.875 20.375 C55.96492187 20.30023438 55.05484375 20.22546875 54.1171875 20.1484375 C53.41851563 20.09945313 52.71984375 20.05046875 52 20 C52 19.01 52 18.02 52 17 C47.71 17 43.42 17 39 17 C38.505 15.02 38.505 15.02 38 13 C32.72 13 27.44 13 22 13 C21.67 13.66 21.34 14.32 21 15 C20.40985107 14.9592334 19.81970215 14.9184668 19.21166992 14.87646484 C16.5375586 14.69806797 13.86269141 14.53635493 11.1875 14.375 C10.25873047 14.31054688 9.32996094 14.24609375 8.37304688 14.1796875 C7.48037109 14.128125 6.58769531 14.0765625 5.66796875 14.0234375 C4.43469849 13.94488525 4.43469849 13.94488525 3.17651367 13.86474609 C0.70264209 13.83566417 0.70264209 13.83566417 -2 16 C-4.015625 16.37890625 -4.015625 16.37890625 -6.25 16.5625 C-9.14796473 16.82166758 -11.93353289 17.15303818 -14.8125 17.625 C-17.75589222 17.97128144 -19.22806623 17.69298344 -22 17 C-22.99 17.66 -23.98 18.32 -25 19 C-25.66 18.67 -26.32 18.34 -27 18 C-27.99 18.33 -28.98 18.66 -30 19 C-30.99 18.01 -31.98 17.02 -33 16 C-33.763125 16.33 -34.52625 16.66 -35.3125 17 C-39.66956881 18.62123491 -43.48558071 17.68142178 -48 17 C-48.33 16.01 -48.66 15.02 -49 14 C-47.1746875 13.319375 -47.1746875 13.319375 -45.3125 12.625 C-42.89749727 11.72311403 -40.50825021 10.79688596 -38.125 9.8125 C-36 9 -36 9 -34 9 C-34 8.34 -34 7.68 -34 7 C-32.0085944 6.61866701 -30.00720923 6.28674418 -28 6 C-27.67 6.33 -27.34 6.66 -27 7 C-26.67 6.34 -26.34 5.68 -26 5 C-24.1796875 4.62109375 -24.1796875 4.62109375 -21.875 4.4375 C-18.93115435 4.17499147 -16.05447342 3.86274614 -13.125 3.4375 C-10 3 -10 3 -7 3 C-3.90073181 2.67801034 -3.90073181 2.67801034 -1 2 C-0.67 1.34 -0.34 0.68 0 0 Z " fill="#89E879" transform="translate(582,415)"/>
<path d="M0 0 C0.92554688 0.00193359 1.85109375 0.00386719 2.8046875 0.00585938 C3.76375 0.01810547 4.7228125 0.03035156 5.7109375 0.04296875 C6.67773438 0.04361328 7.64453125 0.04425781 8.640625 0.04492188 C15.80489745 0.08994873 15.80489745 0.08994873 18.0859375 1.23046875 C19.95962469 1.49787723 21.84016604 1.71799727 23.72265625 1.9140625 C25.42518555 2.0987207 25.42518555 2.0987207 27.16210938 2.28710938 C29.54993832 2.53893558 31.93795739 2.78896614 34.32617188 3.03710938 C40.13887869 3.67056641 45.51803114 4.45331508 51.0859375 6.23046875 C53.87837795 6.39975418 53.87837795 6.39975418 56.0859375 6.23046875 C56.0859375 6.89046875 56.0859375 7.55046875 56.0859375 8.23046875 C61.3659375 8.89046875 66.6459375 9.55046875 72.0859375 10.23046875 C72.0859375 11.22046875 72.0859375 12.21046875 72.0859375 13.23046875 C72.7459375 13.23046875 73.4059375 13.23046875 74.0859375 13.23046875 C74.0859375 13.89046875 74.0859375 14.55046875 74.0859375 15.23046875 C75.0759375 15.72546875 75.0759375 15.72546875 76.0859375 16.23046875 C73.59500939 17.4759328 72.67513017 17.00722655 70.0859375 16.23046875 C70.0859375 15.57046875 70.0859375 14.91046875 70.0859375 14.23046875 C69.2196875 14.50890625 69.2196875 14.50890625 68.3359375 14.79296875 C65.87901225 15.27070421 64.44196216 14.98776239 62.0859375 14.23046875 C64.13827435 16.47826625 65.09261011 17.23269295 68.0859375 18.23046875 C68.0859375 18.89046875 68.0859375 19.55046875 68.0859375 20.23046875 C66.4359375 20.56046875 64.7859375 20.89046875 63.0859375 21.23046875 C62.0959375 19.74546875 62.0959375 19.74546875 61.0859375 18.23046875 C59.43389294 17.52834981 57.76669981 16.86075462 56.0859375 16.23046875 C55.0959375 15.24046875 55.0959375 15.24046875 54.0859375 14.23046875 C51.65341089 13.76884448 51.65341089 13.76884448 48.9609375 13.60546875 C48.05085937 13.53070313 47.14078125 13.4559375 46.203125 13.37890625 C45.50445313 13.32992188 44.80578125 13.2809375 44.0859375 13.23046875 C44.0859375 12.24046875 44.0859375 11.25046875 44.0859375 10.23046875 C39.7959375 10.23046875 35.5059375 10.23046875 31.0859375 10.23046875 C30.5909375 8.25046875 30.5909375 8.25046875 30.0859375 6.23046875 C24.8059375 6.23046875 19.5259375 6.23046875 14.0859375 6.23046875 C13.7559375 6.89046875 13.4259375 7.55046875 13.0859375 8.23046875 C12.49578857 8.18970215 11.90563965 8.14893555 11.29760742 8.10693359 C8.6234961 7.92853672 5.94862891 7.76682368 3.2734375 7.60546875 C2.34466797 7.54101562 1.41589844 7.4765625 0.45898438 7.41015625 C-0.43369141 7.35859375 -1.32636719 7.30703125 -2.24609375 7.25390625 C-3.47936401 7.175354 -3.47936401 7.175354 -4.73754883 7.09521484 C-7.21142041 7.06613292 -7.21142041 7.06613292 -9.9140625 9.23046875 C-11.9296875 9.609375 -11.9296875 9.609375 -14.1640625 9.79296875 C-17.06202723 10.05213633 -19.84759539 10.38350693 -22.7265625 10.85546875 C-25.66995472 11.20175019 -27.14212873 10.92345219 -29.9140625 10.23046875 C-30.9040625 10.89046875 -31.8940625 11.55046875 -32.9140625 12.23046875 C-33.5740625 11.90046875 -34.2340625 11.57046875 -34.9140625 11.23046875 C-35.9040625 11.56046875 -36.8940625 11.89046875 -37.9140625 12.23046875 C-38.2440625 10.91046875 -38.5740625 9.59046875 -38.9140625 8.23046875 C-33.91350369 6.14690258 -29.15891574 5.84925141 -23.81640625 5.57421875 C-20.85077935 5.22297357 -18.64691218 4.39261081 -15.9140625 3.23046875 C-14.150625 2.98296875 -14.150625 2.98296875 -12.3515625 2.73046875 C-9.06841684 2.45092677 -9.06841684 2.45092677 -7.00634766 1.21362305 C-4.50945019 0.04034346 -2.74969817 -0.01335313 0 0 Z " fill="#6EE666" transform="translate(589.9140625,421.76953125)"/>
<path d="M0 0 C0.99040283 0.56291748 1.98080566 1.12583496 3.0012207 1.70581055 C11.80106284 6.73027854 20.51088024 11.90335991 29.21557617 17.09033203 C37.36498076 21.94048667 45.57009465 26.68483197 53.8125 31.375 C62.97725564 36.59290993 72.13042783 41.82851906 81.25 47.125 C82.77983521 48.00889404 82.77983521 48.00889404 84.34057617 48.91064453 C85.27232666 49.45317871 86.20407715 49.99571289 87.1640625 50.5546875 C87.98084473 51.02890137 88.79762695 51.50311523 89.63916016 51.99169922 C91.625 53.25 91.625 53.25 93.625 55.25 C89.69586875 55.25 87.23994923 53.54518188 83.9375 51.625 C83.24253418 51.22748535 82.54756836 50.8299707 81.83154297 50.42041016 C79.42424994 49.03893743 77.02398857 47.64584213 74.625 46.25 C73.74021973 45.73566406 72.85543945 45.22132813 71.94384766 44.69140625 C68.0168519 42.40630982 64.09199162 40.11761916 60.17041016 37.82324219 C51.66111582 32.84483571 43.11962812 27.92392032 34.57128906 23.01293945 C28.2707606 19.38340988 22.00551933 15.70156586 15.76872253 11.96411133 C9.74323213 8.35415707 3.69004311 4.7931767 -2.375 1.25 C-3.19774414 0.76257324 -4.02048828 0.27514648 -4.86816406 -0.22705078 C-14.35623624 -5.78423167 -22.17462762 -8.52339229 -33.375 -6.75 C-39.47347857 -5.08063799 -44.72936152 -0.88158226 -48.375 4.25 C-50.99836571 10.1792199 -51.78581506 14.83450388 -51.6328125 21.2734375 C-51.62619598 22.10082428 -51.61957947 22.92821106 -51.61276245 23.78067017 C-51.58955479 26.39584338 -51.54584097 29.01013434 -51.5 31.625 C-51.46491504 34.26117853 -51.43417165 36.89731138 -51.40866089 39.53359985 C-51.39169901 41.16744718 -51.36856926 42.80124453 -51.33865356 44.43490601 C-51.26436566 50.02873133 -51.26436566 50.02873133 -52.375 52.25 C-52.49505547 54.18971378 -52.55233344 56.13343616 -52.58032227 58.07666016 C-52.60026749 59.29777496 -52.62021271 60.51888977 -52.64076233 61.77700806 C-52.65774656 63.11435823 -52.67462537 64.45170975 -52.69140625 65.7890625 C-52.71197603 67.15384553 -52.73297251 68.51862218 -52.75437927 69.88339233 C-52.80959759 73.47707973 -52.85900787 77.0708246 -52.90722656 80.66461182 C-52.95744337 84.33114746 -53.01312849 87.99759956 -53.06835938 91.6640625 C-53.175938 98.85930426 -53.27738357 106.05461546 -53.375 113.25 C-53.705 113.25 -54.035 113.25 -54.375 113.25 C-54.51434519 100.14096725 -54.62079655 87.03211223 -54.68587303 73.92248821 C-54.71711501 67.83437019 -54.75945848 61.74676086 -54.82763672 55.65893555 C-54.89308209 49.777978 -54.92875964 43.89750812 -54.94426346 38.01621437 C-54.95530456 35.77840314 -54.97686521 33.540617 -55.00938034 31.30301476 C-55.33656367 7.84287567 -55.33656367 7.84287567 -46.63265991 -1.65034485 C-31.80308307 -16.16820399 -15.39845789 -8.80858312 0 0 Z " fill="#F4E621" transform="translate(805.375,260.75)"/>
<path d="M0 0 C1.02931641 0.56831543 2.05863281 1.13663086 3.11914062 1.72216797 C10.43523677 5.77520186 17.72586188 9.87218765 25 14 C22 15 22 15 18.62890625 13.375 C17.26760595 12.59340347 15.9124649 11.80101586 14.5625 11 C13.84312256 10.58572754 13.12374512 10.17145508 12.38256836 9.74462891 C9.18733035 7.8987757 6.02181165 6.01335963 2.875 4.0859375 C-5.38413623 -0.93837038 -14.0179173 -4.49869051 -23 -8 C-23.66 -7.34 -24.32 -6.68 -25 -6 C-25 -6.99 -25 -7.98 -25 -9 C-39.84617496 -13.01880689 -53.96629996 -15.16183524 -69.375 -15.3125 C-70.48085449 -15.33022461 -71.58670898 -15.34794922 -72.72607422 -15.36621094 C-79.4726757 -15.36010081 -84.72576899 -14.50308795 -91 -12 C-91 -12.66 -91 -13.32 -91 -14 C-92.65 -13.67 -94.3 -13.34 -96 -13 C-96.33 -12.01 -96.66 -11.02 -97 -10 C-99.66666667 -10 -102.33333333 -10 -105 -10 C-106.33608728 -9.67788252 -107.66913521 -9.34305655 -109 -9 C-110.01126953 -8.80470703 -110.01126953 -8.80470703 -111.04296875 -8.60546875 C-116.81624765 -7.48025774 -121.73169586 -5.58085998 -127 -3 C-127.58201172 -2.71850098 -128.16402344 -2.43700195 -128.76367188 -2.14697266 C-136.97203487 1.83114889 -144.92167132 5.97959144 -152.64453125 10.84765625 C-155 12 -155 12 -158 11 C-106.84566485 -18.48677593 -54.24450998 -29.98357615 0 0 Z M-93 -12 C-92.34 -11.67 -91.68 -11.34 -91 -11 C-91.99 -10.34 -92.98 -9.68 -94 -9 C-93.67 -9.99 -93.34 -10.98 -93 -12 Z " fill="#C7EE77" transform="translate(669,400)"/>
<path d="M0 0 C5.29212836 3.99515161 8.60922279 9.6803347 11.03515625 15.78515625 C11.1953125 18.625 11.1953125 18.625 11.03515625 20.78515625 C10.37515625 20.78515625 9.71515625 20.78515625 9.03515625 20.78515625 C8.88820313 20.15609375 8.74125 19.52703125 8.58984375 18.87890625 C6.39513843 10.50370893 3.22122396 4.30610919 -4.40234375 -0.21484375 C-12.28090221 -3.64184003 -20.43714517 -3.78517247 -28.53515625 -0.9765625 C-32.84790612 0.97521837 -36.8963536 3.37481886 -40.96484375 5.78515625 C-41.92938477 6.3486377 -42.89392578 6.91211914 -43.88769531 7.49267578 C-49.57488559 10.81850272 -55.23925716 14.18024747 -60.890625 17.56640625 C-67.56340168 21.56240443 -74.28485068 25.47033935 -81.02734375 29.34765625 C-82.62908447 30.26913452 -82.62908447 30.26913452 -84.26318359 31.20922852 C-86.4188549 32.44868261 -88.57477895 33.68769724 -90.73095703 34.92626953 C-93.97602894 36.79158566 -97.21891197 38.66064461 -100.4609375 40.53125 C-101.53529053 41.15104736 -102.60964355 41.77084473 -103.71655273 42.40942383 C-105.87180693 43.65397986 -108.02627506 44.89989819 -110.17993164 46.1472168 C-115.186991 49.04432357 -120.20057929 51.92666262 -125.24926758 54.75054932 C-127.01740762 55.74053051 -128.7825328 56.73569029 -130.546875 57.73242188 C-132.74682497 58.97319366 -134.95217924 60.20445659 -137.1640625 61.42382812 C-147.95894763 67.54000824 -158.89874699 75.55065223 -162.95703125 87.7734375 C-164.33802242 93.05408468 -165.34870864 98.36316732 -165.96484375 103.78515625 C-166.29484375 103.78515625 -166.62484375 103.78515625 -166.96484375 103.78515625 C-167.73091339 90.01718249 -164.21489763 81.78747391 -155.35083008 71.26391602 C-153.24003181 69.01182774 -150.88866487 67.48265756 -148.27734375 65.84765625 C-147.69194824 65.48051514 -147.10655273 65.11337402 -146.50341797 64.73510742 C-136.92627667 58.80861146 -127.08531846 53.30546784 -117.31347656 47.70947266 C-112.18205804 44.76066536 -107.07311648 41.77382254 -101.96484375 38.78515625 C-93.64757947 33.92369538 -85.31276704 29.09377348 -76.96484375 24.28515625 C-68.28613739 19.28487218 -59.61774443 14.26748099 -50.96484375 9.22265625 C-50.00449219 8.66320312 -49.04414063 8.10375 -48.0546875 7.52734375 C-42.69156609 4.3969705 -37.35499739 1.22766341 -32.04638672 -1.99438477 C-21.72629834 -8.04530217 -9.80385031 -6.06162514 0 0 Z " fill="#F7EC1C" transform="translate(437.96484375,256.21484375)"/>
<path d="M0 0 C0.76441406 0.0721875 1.52882813 0.144375 2.31640625 0.21875 C9.89061646 0.87499926 17.29356755 1.03706945 24.8828125 0.83984375 C28 1 28 1 31 3 C33.51584891 3.24150773 33.51584891 3.24150773 36.1875 3.125 C37.53908203 3.09792969 37.53908203 3.09792969 38.91796875 3.0703125 C39.94857422 3.03550781 39.94857422 3.03550781 41 3 C41 3.66 41 4.32 41 5 C41.99 5 42.98 5 44 5 C44.33 4.34 44.66 3.68 45 3 C45 3.66 45 4.32 45 5 C45.73605469 5.04898437 46.47210937 5.09796875 47.23046875 5.1484375 C48.20628906 5.22320312 49.18210937 5.29796875 50.1875 5.375 C51.15042969 5.44460938 52.11335937 5.51421875 53.10546875 5.5859375 C56.02457118 6.00351491 58.27963847 6.90473169 61 8 C62.32 8 63.64 8 65 8 C65 8.99 65 9.98 65 11 C55.94001791 10.31960609 55.94001791 10.31960609 51.875 8.9375 C48.10265915 7.70738885 44.96478476 7.93500353 41 8 C40.01 7.67 39.02 7.34 38 7 C35.8362263 6.79923749 33.66875922 6.6367686 31.5 6.5 C28.06196442 6.28318695 25.27173195 6.09057732 22 5 C19.52949241 4.90164255 17.09483282 4.85764145 14.625 4.875 C13.90820068 4.87983398 13.19140137 4.88466797 12.45288086 4.88964844 C1.16272527 5.01499712 -9.22145329 6.29387583 -20.15234375 9.0625 C-25.16550931 10.28398196 -29.83506287 11.15190992 -35 11 C-35.33 10.34 -35.66 9.68 -36 9 C-35.34 9 -34.68 9 -34 9 C-34 8.34 -34 7.68 -34 7 C-32.0085944 6.61866701 -30.00720923 6.28674418 -28 6 C-27.67 6.33 -27.34 6.66 -27 7 C-26.67 6.34 -26.34 5.68 -26 5 C-24.1796875 4.62109375 -24.1796875 4.62109375 -21.875 4.4375 C-18.93115435 4.17499147 -16.05447342 3.86274614 -13.125 3.4375 C-10 3 -10 3 -7 3 C-3.90073181 2.67801034 -3.90073181 2.67801034 -1 2 C-0.67 1.34 -0.34 0.68 0 0 Z " fill="#9BEA84" transform="translate(582,415)"/>
<path d="M0 0 C5.71452667 -0.20883652 5.71452667 -0.20883652 8.9140625 1.6640625 C9.3884375 2.1590625 9.8628125 2.6540625 10.3515625 3.1640625 C10.0215625 3.8240625 9.6915625 4.4840625 9.3515625 5.1640625 C8.76141357 5.1232959 8.17126465 5.0825293 7.56323242 5.04052734 C4.8891211 4.86213047 2.21425391 4.70041743 -0.4609375 4.5390625 C-1.38970703 4.47460938 -2.31847656 4.41015625 -3.27539062 4.34375 C-4.16806641 4.2921875 -5.06074219 4.240625 -5.98046875 4.1875 C-7.21373901 4.10894775 -7.21373901 4.10894775 -8.47192383 4.02880859 C-10.94579541 3.99972667 -10.94579541 3.99972667 -13.6484375 6.1640625 C-15.6640625 6.54296875 -15.6640625 6.54296875 -17.8984375 6.7265625 C-20.79640223 6.98573008 -23.58197039 7.31710068 -26.4609375 7.7890625 C-29.40432972 8.13534394 -30.87650373 7.85704594 -33.6484375 7.1640625 C-34.6384375 7.8240625 -35.6284375 8.4840625 -36.6484375 9.1640625 C-37.3084375 8.8340625 -37.9684375 8.5040625 -38.6484375 8.1640625 C-39.6384375 8.4940625 -40.6284375 8.8240625 -41.6484375 9.1640625 C-41.9784375 7.8440625 -42.3084375 6.5240625 -42.6484375 5.1640625 C-37.29374954 2.92784697 -32.64125875 2.99021946 -26.9609375 3.1640625 C-25.26978856 3.21511605 -23.57833753 3.25717024 -21.88671875 3.2890625 C-21.14462158 3.31226563 -20.40252441 3.33546875 -19.63793945 3.359375 C-17.32760786 3.2901647 -17.32760786 3.2901647 -14.6484375 1.1640625 C-9.80607481 0.39335613 -4.88976453 0.30290577 0 0 Z " fill="#62E463" transform="translate(593.6484375,424.8359375)"/>
<path d="M0 0 C4.67943334 0.66739459 8.94253133 0.30474679 13.6171875 -0.28125 C16 -0.4375 16 -0.4375 19 0.5625 C19.66 0.2325 20.32 -0.0975 21 -0.4375 C22.70702735 -0.50746014 24.41668003 -0.52190154 26.125 -0.5 C27.03507813 -0.49097656 27.94515625 -0.48195313 28.8828125 -0.47265625 C29.93082031 -0.45525391 29.93082031 -0.45525391 31 -0.4375 C31 -0.1075 31 0.2225 31 0.5625 C30.04287109 0.76166016 30.04287109 0.76166016 29.06640625 0.96484375 C28.24011719 1.14144531 27.41382813 1.31804687 26.5625 1.5 C25.73878906 1.67402344 24.91507813 1.84804688 24.06640625 2.02734375 C22.02338796 2.37002994 22.02338796 2.37002994 21 3.5625 C17.56889801 3.97954002 14.13976663 4.33058527 10.69726562 4.63671875 C5.34488252 5.18928324 1.00216477 6.59178708 -4 8.5625 C-7.41099168 8.5625 -10.63088314 8.07104594 -14 7.5625 C-14.33 6.5725 -14.66 5.5825 -15 4.5625 C-14.45730469 4.36914062 -13.91460938 4.17578125 -13.35546875 3.9765625 C-12.64003906 3.71617187 -11.92460938 3.45578125 -11.1875 3.1875 C-10.47980469 2.93226563 -9.77210938 2.67703125 -9.04296875 2.4140625 C-2.27726889 -0.40605714 -2.27726889 -0.40605714 0 0 Z " fill="#77E773" transform="translate(548,424.4375)"/>
<path d="M0 0 C0.70318359 0.08314453 1.40636719 0.16628906 2.13085938 0.25195312 C6.0521224 0.75543301 9.47203005 1.52225269 13.0625 3.1875 C13.0625 3.8475 13.0625 4.5075 13.0625 5.1875 C14.42375 5.55875 14.42375 5.55875 15.8125 5.9375 C19.20857416 7.24368237 20.62166188 8.57832822 23.0625 11.1875 C24.0525 11.5175 25.0425 11.8475 26.0625 12.1875 C26.0625 12.8475 26.0625 13.5075 26.0625 14.1875 C24.4125 14.5175 22.7625 14.8475 21.0625 15.1875 C20.4025 14.1975 19.7425 13.2075 19.0625 12.1875 C17.41045544 11.48538106 15.74326231 10.81778587 14.0625 10.1875 C13.4025 9.5275 12.7425 8.8675 12.0625 8.1875 C9.62997339 7.72587573 9.62997339 7.72587573 6.9375 7.5625 C6.02742187 7.48773438 5.11734375 7.41296875 4.1796875 7.3359375 C3.48101563 7.28695313 2.78234375 7.23796875 2.0625 7.1875 C2.0625 6.1975 2.0625 5.2075 2.0625 4.1875 C-2.2275 4.1875 -6.5175 4.1875 -10.9375 4.1875 C-11.2675 2.8675 -11.5975 1.5475 -11.9375 0.1875 C-7.94700609 -1.27395361 -4.10161273 -0.54962358 0 0 Z " fill="#62E56A" transform="translate(631.9375,427.8125)"/>
<path d="M0 0 C4.08153426 0.42963518 7.7353952 0.92375794 11.6875 2.0625 C14.67606916 2.90832146 16.92667107 3.18626236 20 3 C20 3.66 20 4.32 20 5 C25.28 5.66 30.56 6.32 36 7 C36 7.99 36 8.98 36 10 C36.66 10 37.32 10 38 10 C38 10.66 38 11.32 38 12 C38.66 12.33 39.32 12.66 40 13 C37.50907189 14.24546405 36.58919267 13.7767578 34 13 C34 12.34 34 11.68 34 11 C33.43539062 11.19335938 32.87078125 11.38671875 32.2890625 11.5859375 C29.50789565 12.08901546 28.01314657 11.58673236 25.375 10.625 C24.59898437 10.34914063 23.82296875 10.07328125 23.0234375 9.7890625 C21 9 21 9 19 8 C19 7.34 19 6.68 19 6 C15.07901312 5.18035868 11.14774848 4.53753765 7.1875 3.9375 C6.02605469 3.76089844 4.86460937 3.58429688 3.66796875 3.40234375 C2.78753906 3.26957031 1.90710938 3.13679688 1 3 C0.67 2.01 0.34 1.02 0 0 Z " fill="#71E679" transform="translate(626,425)"/>
<path d="M0 0 C0.33 0 0.66 0 1 0 C1.78436426 20.40058506 2.19933467 40.60043228 1 61 C1.66 61 2.32 61 3 61 C3 61.66 3 62.32 3 63 C1.02 63.99 1.02 63.99 -1 65 C-1.0251048 58.79679647 -1.04304712 52.59362383 -1.05493164 46.39038086 C-1.05989684 44.28913863 -1.06667123 42.18789973 -1.07543945 40.08666992 C-1.12987263 26.68650135 -0.87600485 13.37314736 0 0 Z " fill="#18C181" transform="translate(450,486)"/>
<path d="M0 0 C1.98 0.99 3.96 1.98 6 3 C5.67 3.66 5.34 4.32 5 5 C4.01 4.67 3.02 4.34 2 4 C2.00222061 4.63336273 2.00444122 5.26672546 2.00672913 5.91928101 C2.11590687 38.6299526 2.02263503 71.30287688 1 104 C0.67 104 0.34 104 0 104 C0 69.68 0 35.36 0 0 Z " fill="#8DBA00" transform="translate(752,448)"/>
<path d="M0 0 C23.48370988 1.23598473 45.21332045 16.7717694 65 28 C62 29 62 29 58.62890625 27.375 C57.26760595 26.59340347 55.9124649 25.80101586 54.5625 25 C53.84312256 24.58572754 53.12374512 24.17145508 52.38256836 23.74462891 C49.18733035 21.8987757 46.02181165 20.01335963 42.875 18.0859375 C34.61586377 13.06162962 25.9820827 9.50130949 17 6 C16.34 6.66 15.68 7.32 15 8 C15 7.01 15 6.02 15 5 C14.08476563 4.80664062 13.16953125 4.61328125 12.2265625 4.4140625 C11.03804687 4.15367187 9.84953125 3.89328125 8.625 3.625 C7.44164062 3.36976563 6.25828125 3.11453125 5.0390625 2.8515625 C2 2 2 2 0 0 Z " fill="#A3E856" transform="translate(629,386)"/>
<path d="M0 0 C0.66 0 1.32 0 2 0 C2.06058594 0.75925781 2.12117188 1.51851563 2.18359375 2.30078125 C2.26738281 3.29464844 2.35117187 4.28851563 2.4375 5.3125 C2.55931641 6.79169922 2.55931641 6.79169922 2.68359375 8.30078125 C2.91812559 11.09375599 2.91812559 11.09375599 4 14 C3.70630173 15.34262065 3.3721042 16.67696283 3 18 C3 20.32555036 3.01459718 22.65110302 3.03515625 24.9765625 C3.04444251 26.52604065 3.05355086 28.07551987 3.0625 29.625 C3.07087891 30.41390625 3.07925781 31.2028125 3.08789062 32.015625 C3.09646016 34.01061339 3.05248201 36.00568364 3 38 C2.505 38.495 2.505 38.495 2 39 C1.84379445 40.41327947 1.74943827 41.8335459 1.68359375 43.25390625 C1.64169922 44.10791016 1.59980469 44.96191406 1.55664062 45.84179688 C1.51732422 46.73962891 1.47800781 47.63746094 1.4375 48.5625 C1.39431641 49.46419922 1.35113281 50.36589844 1.30664062 51.29492188 C1.20021858 53.52978485 1.09820012 55.76476308 1 58 C0.67 58 0.34 58 0 58 C0 38.86 0 19.72 0 0 Z " fill="#23D66B" transform="translate(449,447)"/>
<path d="M0 0 C-0.64437012 0.34667725 -1.28874023 0.69335449 -1.95263672 1.05053711 C-25.49353286 12.9297533 -25.49353286 12.9297533 -39.9921875 33.98828125 C-41.37317867 39.26892843 -42.38386489 44.57801107 -43 50 C-43.33 50 -43.66 50 -44 50 C-44.76385466 36.27183437 -41.26910447 28.01649905 -32.4387207 17.50952148 C-30.10739522 15.06346931 -27.42181544 13.40339504 -24.5625 11.625 C-23.66084106 11.06353271 -23.66084106 11.06353271 -22.7409668 10.49072266 C-20.83539264 9.31330679 -18.9190553 8.15529058 -17 7 C-16.35095703 6.60361328 -15.70191406 6.20722656 -15.03320312 5.79882812 C-13.13427294 4.64353494 -11.2260699 3.50584897 -9.3125 2.375 C-8.4309021 1.84253662 -8.4309021 1.84253662 -7.53149414 1.29931641 C-3.34867659 -1.11622553 -3.34867659 -1.11622553 0 0 Z " fill="#F2EB1A" transform="translate(315,310)"/>
<path d="M0 0 C0 0.33 0 0.66 0 1 C-1.794375 1.4021875 -1.794375 1.4021875 -3.625 1.8125 C-10.84708056 3.66561733 -16.55081509 6.91334268 -21 13 C-23.63602189 18.93672684 -24.40169146 23.5752695 -24.22265625 30.0234375 C-24.21366806 30.85082428 -24.20467987 31.67821106 -24.19541931 32.53067017 C-24.16564431 35.14589494 -24.11581982 37.76015739 -24.0625 40.375 C-24.01467848 43.01119158 -23.97140982 45.64715608 -23.94029236 48.28359985 C-23.92051592 49.91752391 -23.89086535 51.55136445 -23.85035706 53.18490601 C-23.82440941 55.12373875 -23.9031575 57.06341351 -24 59 C-24.66 59.66 -25.32 60.32 -26 61 C-26.12428105 55.04101025 -26.21465997 49.08278705 -26.2746582 43.12280273 C-26.29968848 41.09858037 -26.33372347 39.07444736 -26.37719727 37.05053711 C-26.43835747 34.12851836 -26.46632485 31.20770184 -26.48828125 28.28515625 C-26.51408768 27.39103531 -26.5398941 26.49691437 -26.56648254 25.57569885 C-26.56971675 18.20890537 -24.36194199 12.51480619 -19.22676086 7.14613342 C-13.20257172 1.64002819 -8.10815797 -0.41938748 0 0 Z " fill="#F7E80B" transform="translate(778,252)"/>
<path d="M0 0 C0.92876953 -0.00128906 1.85753906 -0.00257813 2.81445312 -0.00390625 C4.26561523 0.00189453 4.26561523 0.00189453 5.74609375 0.0078125 C7.20305664 0.00201172 7.20305664 0.00201172 8.68945312 -0.00390625 C9.61693359 -0.00261719 10.54441406 -0.00132812 11.5 0 C12.35021729 0.00112793 13.20043457 0.00225586 14.07641602 0.00341797 C16.18359375 0.1328125 16.18359375 0.1328125 18.18359375 1.1328125 C21.59191252 1.56987062 24.99924234 1.9512562 28.41796875 2.29492188 C33.96863358 2.91785233 33.96863358 2.91785233 36.18359375 5.1328125 C34.22533502 5.15976101 32.26697149 5.17918468 30.30859375 5.1953125 C28.67277344 5.21271484 28.67277344 5.21271484 27.00390625 5.23046875 C24.18359375 5.1328125 24.18359375 5.1328125 22.18359375 4.1328125 C21.35859375 4.3184375 20.53359375 4.5040625 19.68359375 4.6953125 C18.85859375 4.8396875 18.03359375 4.9840625 17.18359375 5.1328125 C16.52359375 4.4728125 15.86359375 3.8128125 15.18359375 3.1328125 C9.41480792 1.38469558 3.12141112 1.82522244 -2.75390625 2.7578125 C-3.76453125 2.8815625 -4.77515625 3.0053125 -5.81640625 3.1328125 C-6.47640625 2.4728125 -7.13640625 1.8128125 -7.81640625 1.1328125 C-4.90766621 0.16323249 -3.02650834 0.00400976 0 0 Z " fill="#7AE76C" transform="translate(589.81640625,421.8671875)"/>
<path d="M0 0 C1.67013418 0.65793165 3.3357865 1.32723284 5 2 C6.175625 2.45375 7.35125 2.9075 8.5625 3.375 C12 5 12 5 13.74609375 6.8046875 C16.69885211 9.68068438 19.98401315 11.6272811 23.5 13.75 C24.92799463 14.62612056 26.35506841 15.50374368 27.78125 16.3828125 C28.48894531 16.81883789 29.19664062 17.25486328 29.92578125 17.70410156 C34.6950705 20.68378463 39.34591096 23.8443866 44 27 C43.67 27.66 43.34 28.32 43 29 C42.40799805 28.61368408 41.81599609 28.22736816 41.20605469 27.8293457 C39.41552281 26.66101503 37.62490587 25.49281472 35.83422852 24.32470703 C33.76673763 22.97583821 31.69952045 21.62654977 29.63256836 20.27685547 C24.43686507 16.88584121 19.23623799 13.50316135 14.01953125 10.14453125 C13.09881836 9.55051514 12.17810547 8.95649902 11.22949219 8.34448242 C9.47027143 7.21026494 7.70923872 6.07885227 5.94628906 4.95043945 C5.16092773 4.44343506 4.37556641 3.93643066 3.56640625 3.4140625 C2.87490479 2.9701416 2.18340332 2.5262207 1.47094727 2.06884766 C0.98553467 1.71612793 0.50012207 1.3634082 0 1 C0 0.67 0 0.34 0 0 Z " fill="#61AB11" transform="translate(322,584)"/>
<path d="M0 0 C0.79664063 0.08765625 1.59328125 0.1753125 2.4140625 0.265625 C3.06117188 0.42546875 3.70828125 0.5853125 4.375 0.75 C4.705 1.41 5.035 2.07 5.375 2.75 C4.78332031 2.93175781 4.19164062 3.11351562 3.58203125 3.30078125 C-1.56976057 4.92207383 -1.56976057 4.92207383 -6.25 7.5625 C-8.625 8.75 -8.625 8.75 -12.4375 7.9375 C-13.489375 7.545625 -14.54125 7.15375 -15.625 6.75 C-15.625 6.09 -15.625 5.43 -15.625 4.75 C-15.08230469 4.55664062 -14.53960938 4.36328125 -13.98046875 4.1640625 C-13.26503906 3.90367187 -12.54960938 3.64328125 -11.8125 3.375 C-11.10480469 3.11976563 -10.39710938 2.86453125 -9.66796875 2.6015625 C-2.64203917 -0.32702765 -2.64203917 -0.32702765 0 0 Z " fill="#7FE77F" transform="translate(548.625,424.25)"/>
<path d="M0 0 C0.66 0.33 1.32 0.66 2 1 C1.60167969 1.46148437 1.20335937 1.92296875 0.79296875 2.3984375 C-5.90051869 10.6390814 -7.33938773 19.72374052 -9 30 C-9.33 30 -9.66 30 -10 30 C-10.63711071 18.54970472 -8.71711474 11.18005682 -2 2 C-1.34 1.34 -0.68 0.68 0 0 Z " fill="#ECE612" transform="translate(281,330)"/>
<path d="M0 0 C2.75 -0.25 2.75 -0.25 6 0 C8.1875 1.9375 8.1875 1.9375 10 4 C10.99 4.33 11.98 4.66 13 5 C13 5.66 13 6.32 13 7 C11.35 7.33 9.7 7.66 8 8 C7.34 7.01 6.68 6.02 6 5 C5.154375 4.67 4.30875 4.34 3.4375 4 C2.633125 3.67 1.82875 3.34 1 3 C0.67 2.01 0.34 1.02 0 0 Z " fill="#4CE369" transform="translate(645,435)"/>
<path d="M0 0 C1.30066406 -0.01417969 2.60132813 -0.02835937 3.94140625 -0.04296875 C7.12451826 0.16686768 8.80156237 0.49057323 11.4375 2.1875 C8.5628509 2.38336184 5.68811717 2.56943799 2.8125 2.75 C1.60013672 2.83411133 1.60013672 2.83411133 0.36328125 2.91992188 C-4.12412516 3.19354422 -8.13112499 3.15551881 -12.5625 2.1875 C-12.5625 1.8575 -12.5625 1.5275 -12.5625 1.1875 C-8.34285054 0.17120678 -4.33376004 0.02151817 0 0 Z " fill="#00C950" transform="translate(600.5625,471.8125)"/>
<path d="M0 0 C6.68993219 0.53951066 12.63460728 1.88706171 19 4 C17.68 5.32 16.36 6.64 15 8 C15 7.01 15 6.02 15 5 C14.08476563 4.80664062 13.16953125 4.61328125 12.2265625 4.4140625 C11.03804687 4.15367187 9.84953125 3.89328125 8.625 3.625 C7.44164062 3.36976563 6.25828125 3.11453125 5.0390625 2.8515625 C2 2 2 2 0 0 Z " fill="#C7EC65" transform="translate(629,386)"/>
<path d="M0 0 C0.66 0.33 1.32 0.66 2 1 C-0.83332467 4.04516202 -3.65500311 6.16868601 -7.25 8.25 C-8.14203125 8.77078125 -9.0340625 9.2915625 -9.953125 9.828125 C-10.62859375 10.21484375 -11.3040625 10.6015625 -12 11 C-12 10.01 -12 9.02 -12 8 C-10.68 7.67 -9.36 7.34 -8 7 C-8 6.34 -8 5.68 -8 5 C-5.09451118 2.95830515 -3.59857954 2 0 2 C0 1.34 0 0.68 0 0 Z " fill="#07A467" transform="translate(493,521)"/>
<path d="M0 0 C-4.93387858 2.25861997 -9.80355921 4.40109514 -15 6 C-15.33 5.34 -15.66 4.68 -16 4 C-14.08959948 3.1319092 -12.17139263 2.28098217 -10.25 1.4375 C-9.18265625 0.96183594 -8.1153125 0.48617188 -7.015625 -0.00390625 C-4.01630163 -0.9946154 -2.86578759 -1.16161779 0 0 Z " fill="#C0EC65" transform="translate(556,391)"/>
<path d="M0 0 C0 0.33 0 0.66 0 1 C-1.60379341 1.05416188 -3.20811406 1.09286638 -4.8125 1.125 C-5.70582031 1.14820313 -6.59914063 1.17140625 -7.51953125 1.1953125 C-10 1 -10 1 -13 -1 C-7.96488101 -2.0070238 -4.76052962 -1.97387813 0 0 Z " fill="#85C11E" transform="translate(753,648)"/>
<path d="M0 0 C4.455 0.99 4.455 0.99 9 2 C9 3.32 9 4.64 9 6 C5.06326356 4.68775452 2.77280706 3.08089673 0 0 Z " fill="#74B50E" transform="translate(710,634)"/>
<path d="M0 0 C-1.12073862 0.83905565 -2.24674547 1.67107831 -3.375 2.5 C-4.00148438 2.9640625 -4.62796875 3.428125 -5.2734375 3.90625 C-7 5 -7 5 -9 5 C-8.8125 3.125 -8.8125 3.125 -8 1 C-4.70594381 -0.82039948 -3.63772813 -1.21257604 0 0 Z " fill="#6FB510" transform="translate(490,635)"/>
<path d="M0 0 C0.66 0.33 1.32 0.66 2 1 C-0.64 2.65 -3.28 4.3 -6 6 C-6.99 5.34 -7.98 4.68 -9 4 C-7.54618103 3.30300448 -6.08677047 2.61766134 -4.625 1.9375 C-3.40683594 1.36322266 -3.40683594 1.36322266 -2.1640625 0.77734375 C-1.44992187 0.52082031 -0.73578125 0.26429688 0 0 Z " fill="#6FB313" transform="translate(871,587)"/>
<path d="M0 0 C0.99 0.33 1.98 0.66 3 1 C1.54550599 2.0055761 0.08627557 3.00430435 -1.375 4 C-2.59316406 4.8353125 -2.59316406 4.8353125 -3.8359375 5.6875 C-6 7 -6 7 -8 7 C-7.67 6.01 -7.34 5.02 -7 4 C-3.4375 2.8125 -3.4375 2.8125 0 2 C0 1.34 0 0.68 0 0 Z " fill="#03B757" transform="translate(543,489)"/>
<path d="M0 0 C2.97 0 5.94 0 9 0 C5.79663178 2.83374881 3.21912747 3.5205537 -1 4 C-0.67 2.68 -0.34 1.36 0 0 Z " fill="#99EA86" transform="translate(556,420)"/>
<path d="M0 0 C-3.08888522 2.05925681 -3.70935927 2.2390374 -7.1875 2.125 C-9.0746875 2.063125 -9.0746875 2.063125 -11 2 C-8.74490247 -2.51019507 -4.15738698 -0.70597137 0 0 Z " fill="#7DBD11" transform="translate(767,647)"/>
<path d="M0 0 C-6.75 4 -6.75 4 -9 4 C-9.33 4.66 -9.66 5.32 -10 6 C-10 5.01 -10 4.02 -10 3 C-3.375 -1.125 -3.375 -1.125 0 0 Z " fill="#28DC4C" transform="translate(468,439)"/>
<path d="M0 0 C0.33 0.99 0.66 1.98 1 3 C-0.32 3.33 -1.64 3.66 -3 4 C-3 4.66 -3 5.32 -3 6 C-3.99 6 -4.98 6 -6 6 C-6 5.34 -6 4.68 -6 4 C-4.03852126 2.61061923 -2.03833424 1.2739589 0 0 Z " fill="#09A575" transform="translate(466,538)"/>
</svg>
